<?xml version="1.0" encoding="UTF-8" standalone="no"?>
<!-- Generator: Adobe Illustrator 24.1.3, SVG Export Plug-In . SVG Version: 6.00 Build 0)  -->

<svg
   version="1.1"
   id="Layer_1"
   x="0px"
   y="0px"
   viewBox="0 0 301 250.09245"
   xml:space="preserve"
   sodipodi:docname="Ginnan3.svg"
   width="301"
   height="250.09245"
   inkscape:version="1.1.1 (c3084ef, 2021-09-22)"
   xmlns:inkscape="http://www.inkscape.org/namespaces/inkscape"
   xmlns:sodipodi="http://sodipodi.sourceforge.net/DTD/sodipodi-0.dtd"
   xmlns:xlink="http://www.w3.org/1999/xlink"
   xmlns="http://www.w3.org/2000/svg"
   xmlns:svg="http://www.w3.org/2000/svg"><defs
   id="defs495" /><sodipodi:namedview
   id="namedview493"
   pagecolor="#ffffff"
   bordercolor="#666666"
   borderopacity="1.0"
   inkscape:pageshadow="2"
   inkscape:pageopacity="0.0"
   inkscape:pagecheckerboard="0"
   showgrid="false"
   inkscape:zoom="1.7662037"
   inkscape:cx="150.32241"
   inkscape:cy="125.41022"
   inkscape:window-width="1312"
   inkscape:window-height="1081"
   inkscape:window-x="0"
   inkscape:window-y="25"
   inkscape:window-maximized="0"
   inkscape:current-layer="Layer_1" />
<style
   type="text/css"
   id="style370">
	.st0{fill:#F3BD48;}
	.st1{fill:#B97233;}
	.st2{fill:none;stroke:#222222;stroke-width:5.5;stroke-linecap:round;stroke-linejoin:round;stroke-miterlimit:10;}
	.st3{fill:#89DC65;}
	.st4{fill:#222222;}
	.st5{fill:#FFFFFF;}
	.st6{fill:#F3EFA1;}
	.st7{fill:none;stroke:#FFFFFF;stroke-width:2.6604;stroke-linecap:round;stroke-linejoin:round;stroke-miterlimit:10;}
	.st8{fill:#FF8672;}
	.st9{fill:none;stroke:#222222;stroke-width:2.6604;stroke-linecap:round;stroke-linejoin:round;stroke-miterlimit:10;}
	.st10{fill:none;stroke:#222222;stroke-width:8.5;stroke-linecap:round;stroke-linejoin:round;stroke-miterlimit:10;}
	.st11{clip-path:url(#SVGID_2_);}
	.st12{fill:none;stroke:#222222;stroke-width:4.5;stroke-linecap:round;stroke-linejoin:round;stroke-miterlimit:10;}
	.st13{fill:none;stroke:#FFFFFF;stroke-width:2.3841;stroke-linecap:round;stroke-linejoin:round;stroke-miterlimit:10;}
	.st14{fill:none;stroke:#222222;stroke-width:2.3841;stroke-linecap:round;stroke-linejoin:round;stroke-miterlimit:10;}
	.st15{fill:none;stroke:#222222;stroke-width:13;stroke-miterlimit:10;}
	.st16{fill:none;stroke:#222222;stroke-width:5.5;stroke-miterlimit:10;}
	.st17{clip-path:url(#SVGID_4_);}
	.st18{fill:none;stroke:#222222;stroke-width:5.5;stroke-linecap:round;stroke-miterlimit:10;}
	.st19{fill:#F5EA61;}
	.st20{fill:none;stroke:#222222;stroke-width:5.5;stroke-linejoin:round;stroke-miterlimit:10;}
</style>
<g
   id="g490"
   transform="translate(-65.5,-90.847555)">
	<path
   class="st15"
   d="m 87.14,99.52 c -15.64,11.29 4.69,87.03 4.69,87.03 L 174.8,131.4 c 0,0.01 -72.02,-43.17 -87.66,-31.88 z"
   id="path372" />
	<path
   class="st15"
   d="m 344.86,99.52 c 15.64,11.29 -4.69,87.03 -4.69,87.03 L 257.2,131.4 c 0,0.01 72.02,-43.17 87.66,-31.88 z"
   id="path374" />
	<path
   class="st15"
   d="m 360,247.22 c 0,59.01 -64.47,87.22 -144,87.22 -79.53,0 -144,-28.21 -144,-87.22 0,-59.01 64.47,-126.48 144,-126.48 79.53,0 144,67.47 144,126.48 z"
   id="path376" />
	<path
   class="st0"
   d="m 87.14,99.52 c -15.64,11.29 4.69,87.03 4.69,87.03 L 174.8,131.4 c 0,0.01 -72.02,-43.17 -87.66,-31.88 z"
   id="path378" />
	<path
   class="st1"
   d="m 142.17,138.61 c -17.83,-20.07 -38.23,-33.46 -55.04,-39.09 0,0 -12.79,12.66 4.69,87.03 0,0.01 14.16,-25.16 50.35,-47.94 z"
   id="path380" />
	<path
   class="st16"
   d="m 87.14,99.52 c -15.64,11.29 4.69,87.03 4.69,87.03 L 174.8,131.4 c 0,0.01 -72.02,-43.17 -87.66,-31.88 z"
   id="path382" />
	<path
   class="st0"
   d="m 344.86,99.52 c 15.64,11.29 -4.69,87.03 -4.69,87.03 l -79.36,-57.27 c 0.01,0.01 68.41,-41.05 84.05,-29.76 z"
   id="path384" />
	<path
   class="st1"
   d="m 289.83,138.61 c 17.83,-20.07 38.23,-33.46 55.04,-39.09 0,0 12.79,12.66 -4.69,87.03 0,0.01 -14.16,-25.16 -50.35,-47.94 z"
   id="path386" />
	<path
   class="st16"
   d="m 344.86,99.52 c 15.64,11.29 -4.69,87.03 -4.69,87.03 L 257.2,131.4 c 0,0.01 72.02,-43.17 87.66,-31.88 z"
   id="path388" />
	<path
   class="st0"
   d="m 360,247.22 c 0,59.01 -64.47,87.22 -144,87.22 -79.53,0 -144,-28.21 -144,-87.22 0,-59.01 64.47,-126.48 144,-126.48 79.53,0 144,67.47 144,126.48 z"
   id="path390" />
	<path
   class="st1"
   d="m 313,314.33 c -22.01,-12.9 -43.12,-15.95 -38.71,-30.67 4.4,-14.71 45.78,-0.06 65.42,14.14 z"
   id="path392" />
	<path
   class="st1"
   d="m 75.93,260.52 c 0,0 43.58,-15.67 48.78,1.9 4.99,16.87 -23.08,13.09 -38.06,29.16 0,0 -12.51,-9.34 -10.72,-31.06 z"
   id="path394" />
	<path
   class="st1"
   d="m 356.07,260.52 c 0,0 -43.58,-15.67 -48.78,1.9 -4.99,16.87 23.08,13.09 38.06,29.16 0,0 12.51,-9.34 10.72,-31.06 z"
   id="path396" />
	<path
   class="st1"
   d="m 119,314.33 c 22.01,-12.9 43.12,-15.95 38.71,-30.67 -4.4,-14.71 -45.78,-0.06 -65.42,14.14 z"
   id="path398" />
	<g
   id="g414">
		<defs
   id="defs401">
			<path
   id="SVGID_3_"
   d="m 360,247.22 c 0,59.01 -64.47,87.22 -144,87.22 -79.53,0 -144,-28.21 -144,-87.22 0,-59.01 64.47,-126.48 144,-126.48 79.53,0 144,67.47 144,126.48 z" />
		</defs>
		<clipPath
   id="SVGID_2_">
			<use
   xlink:href="#SVGID_3_"
   style="overflow:visible"
   id="use403"
   x="0"
   y="0"
   width="100%"
   height="100%" />
		</clipPath>
		<g
   class="st11"
   clip-path="url(#SVGID_2_)"
   id="g412">
			<path
   class="st1"
   d="m 233.28,121.3 -17.28,-2.85 -17.28,2.84 c 0,0 1.95,60.33 17.28,60.33 v 0 0 0 0 c 15.34,0.01 17.28,-60.32 17.28,-60.32 z"
   id="path406" />
			<path
   class="st1"
   d="m 165.02,127.18 c 0,0 5.17,37.71 18.68,34.33 13.27,-3.32 2.6,-18.36 2.6,-39.15"
   id="path408" />
			<path
   class="st1"
   d="m 266.98,127.18 c 0,0 -5.17,37.71 -18.68,34.33 -13.27,-3.32 -2.6,-18.36 -2.6,-39.15"
   id="path410" />
		</g>
	</g>
	<path
   class="st18"
   d="m 161.94,307.61 c 12.4,16.3 32,26.83 54.06,26.83 22.06,0 41.66,-10.52 54.06,-26.83"
   id="path416" />
	<ellipse
   class="st5"
   cx="156.25999"
   cy="169.48"
   rx="16.6"
   ry="10.54"
   id="ellipse418" />
	<ellipse
   class="st5"
   cx="129.00999"
   cy="181.63"
   rx="3.97"
   ry="3.3399999"
   id="ellipse420" />
	<ellipse
   class="st5"
   cx="275.73999"
   cy="169.48"
   rx="16.6"
   ry="10.54"
   id="ellipse422" />
	<ellipse
   class="st5"
   cx="302.98999"
   cy="181.63"
   rx="3.97"
   ry="3.3399999"
   id="ellipse424" />
	
		<ellipse
   transform="matrix(0.3732,-0.9277,0.9277,0.3732,-37.1066,338.0753)"
   class="st19"
   cx="231.64999"
   cy="196.5"
   rx="10.47"
   ry="5.4000001"
   id="ellipse426" />
	
		<ellipse
   transform="matrix(0.9277,-0.3732,0.3732,0.9277,-58.8595,88.9707)"
   class="st19"
   cx="200.35001"
   cy="196.5"
   rx="5.4000001"
   ry="10.47"
   id="ellipse428" />
	<circle
   class="st5"
   cx="216"
   cy="282.66"
   r="41.98"
   id="circle430" />
	<ellipse
   class="st4"
   cx="215.92"
   cy="283.07999"
   rx="12.44"
   ry="14.15"
   id="ellipse432" />
	<path
   class="st2"
   d="m 243.82,266.08 c -1.99,5.52 -7.28,9.46 -13.49,9.46 -7.92,0 -14.34,-6.42 -14.34,-14.34 v 0 c 0,7.92 -6.42,14.34 -14.34,14.34 -6.21,0 -11.49,-3.94 -13.49,-9.46"
   id="path434" />
	<ellipse
   class="st8"
   cx="216"
   cy="254.8"
   rx="9"
   ry="6.4099998"
   id="ellipse436" />
	<ellipse
   class="st2"
   cx="216"
   cy="254.8"
   rx="9"
   ry="6.4099998"
   id="ellipse438" />
	<ellipse
   class="st8"
   cx="216"
   cy="295.75"
   rx="9"
   ry="6.4099998"
   id="ellipse440" />
	<path
   class="st2"
   d="m 202.42,275.54 c 0,14.7 6.08,26.62 13.58,26.62 7.5,0 13.58,-11.92 13.58,-26.62"
   id="path442" />
	<path
   class="st20"
   d="m 344.86,99.52 c -24.55,13.65 -40.93,26.58 -49.48,34.06 -3.57,3.13 -3.19,8.82 0.79,11.4 38.5,24.94 63.83,65.25 63.83,102.24 0,59.01 -64.47,87.22 -144,87.22 -79.53,0 -144,-28.21 -144,-87.22 0,-37.02 25.37,-77.37 63.92,-102.3 3.95,-2.56 4.46,-8.13 1,-11.32 -10.22,-9.41 -30.37,-26.44 -49.79,-34.08"
   id="path444" />
	<path
   class="st2"
   d="m 270.06,123.99 c -3.58,1.99 -6.31,3.58 -7.85,4.48 -14.5,-4.94 -30.05,-7.72 -46.21,-7.72 -16.17,0 -31.72,2.79 -46.23,7.73 -3.27,-1.87 -7.93,-4.49 -13.42,-7.42"
   id="path446" />
	<g
   id="g488">
		<g
   id="g466">
			<path
   class="st3"
   d="m 197.89,233.79 c -10.33,11.89 -56.95,25.71 -76.42,5.9 -14.11,-45.91 58.26,-90 76.42,-5.9 z"
   id="path448" />
			<path
   class="st2"
   d="m 197.89,233.79 c -10.33,11.89 -56.95,25.71 -76.42,5.9 -14.11,-45.91 59.35,-90.8 76.42,-5.9 z"
   id="path450" />
			<circle
   class="st4"
   cx="157.33"
   cy="215.31"
   r="28.99"
   id="circle452" />
			<g
   id="g456">
				<path
   class="st5"
   d="m 162.61,200.23 c -0.05,3.12 2.52,5.85 5.64,5.89 3.12,0.05 5.69,-2.61 5.74,-5.73 0.05,-3.12 -2.45,-5.56 -5.57,-5.6 -3.13,-0.05 -5.77,2.32 -5.81,5.44 z"
   id="path454" />
			</g>
			<g
   id="g460">
				<path
   class="st5"
   d="m 137.49,208.73 c -0.03,1.86 1.45,3.42 3.31,3.45 1.86,0.03 3.42,-1.49 3.45,-3.35 0.03,-1.86 -1.49,-3.37 -3.35,-3.4 -1.86,-0.03 -3.38,1.44 -3.41,3.3 z"
   id="path458" />
			</g>
			<g
   id="g464">
				<path
   class="st5"
   d="m 162.14,216.46 c -0.03,1.77 1.36,3.14 3.14,3.17 1.77,0.03 3.24,-1.3 3.27,-3.07 0.03,-1.77 -1.4,-3.28 -3.18,-3.31 -1.77,-0.03 -3.2,1.44 -3.23,3.21 z"
   id="path462" />
			</g>
		</g>
		<g
   id="g486">
			<path
   class="st3"
   d="m 234.11,233.79 c 10.33,11.89 56.95,25.71 76.42,5.9 14.11,-45.91 -58.26,-90 -76.42,-5.9 z"
   id="path468" />
			<path
   class="st2"
   d="m 234.11,233.79 c 10.33,11.89 56.95,25.71 76.42,5.9 14.11,-45.91 -59.35,-90.8 -76.42,-5.9 z"
   id="path470" />
			<circle
   class="st4"
   cx="274.67001"
   cy="215.31"
   r="28.99"
   id="circle472" />
			<g
   id="g476">
				<path
   class="st5"
   d="m 269.47,200.23 c 0.05,3.12 -2.6,5.7 -5.72,5.74 -3.12,0.05 -5.86,-2.45 -5.91,-5.57 -0.05,-3.12 2.62,-5.67 5.74,-5.72 3.12,-0.05 5.84,2.43 5.89,5.55 z"
   id="path474" />
			</g>
			<g
   id="g480">
				<path
   class="st5"
   d="m 294.57,208.73 c 0.03,1.86 -1.5,3.49 -3.36,3.52 -1.86,0.03 -3.39,-1.56 -3.42,-3.42 -0.03,-1.86 1.46,-3.3 3.32,-3.33 1.86,-0.03 3.43,1.36 3.46,3.23 z"
   id="path478" />
			</g>
			<g
   id="g484">
				<path
   class="st5"
   d="m 269.91,216.46 c 0.03,1.77 -1.42,3.18 -3.19,3.2 -1.77,0.03 -3.31,-1.33 -3.33,-3.11 -0.03,-1.77 1.46,-3.31 3.24,-3.33 1.77,-0.02 3.26,1.47 3.28,3.24 z"
   id="path482" />
			</g>
		</g>
	</g>
</g>
</svg>
