<?xml version="1.0" encoding="UTF-8" standalone="no"?>
<!-- Generator: Adobe Illustrator 24.1.3, SVG Export Plug-In . SVG Version: 6.00 Build 0)  -->

<svg
   version="1.1"
   id="Layer_1"
   x="0px"
   y="0px"
   viewBox="0 0 296.5 58.349998"
   xml:space="preserve"
   sodipodi:docname="Ginnan2.svg"
   width="296.5"
   height="58.349998"
   inkscape:version="1.1.1 (c3084ef, 2021-09-22)"
   xmlns:inkscape="http://www.inkscape.org/namespaces/inkscape"
   xmlns:sodipodi="http://sodipodi.sourceforge.net/DTD/sodipodi-0.dtd"
   xmlns="http://www.w3.org/2000/svg"
   xmlns:svg="http://www.w3.org/2000/svg"><defs
   id="defs50" /><sodipodi:namedview
   id="namedview48"
   pagecolor="#ffffff"
   bordercolor="#666666"
   borderopacity="1.0"
   inkscape:pageshadow="2"
   inkscape:pageopacity="0.0"
   inkscape:pagecheckerboard="0"
   showgrid="false"
   inkscape:zoom="2.0208333"
   inkscape:cx="133.36082"
   inkscape:cy="34.886598"
   inkscape:window-width="1312"
   inkscape:window-height="1081"
   inkscape:window-x="0"
   inkscape:window-y="25"
   inkscape:window-maximized="0"
   inkscape:current-layer="Layer_1" />
<style
   type="text/css"
   id="style9">
	.st0{fill:#F3BD48;}
	.st1{fill:#B97233;}
	.st2{fill:none;stroke:#B97233;stroke-width:5.5;stroke-linecap:round;stroke-linejoin:round;stroke-miterlimit:10;}
	.st3{fill:#89DC65;}
	.st4{fill:#222222;}
	.st5{fill:#FFFFFF;}
	.st6{fill:#F3EFA1;}
	.st7{fill:none;stroke:#FFFFFF;stroke-width:2.6604;stroke-linecap:round;stroke-linejoin:round;stroke-miterlimit:10;}
	.st8{fill:#FF8672;}
	.st9{fill:none;stroke:#B97233;stroke-width:2.6604;stroke-linecap:round;stroke-linejoin:round;stroke-miterlimit:10;}
	.st10{fill:none;stroke:#B97233;stroke-width:8.5;stroke-linecap:round;stroke-linejoin:round;stroke-miterlimit:10;}
	.st11{clip-path:url(#SVGID_2_);}
	.st12{fill:none;stroke:#B97233;stroke-width:4.5;stroke-linecap:round;stroke-linejoin:round;stroke-miterlimit:10;}
	.st13{fill:none;stroke:#FFFFFF;stroke-width:2.3841;stroke-linecap:round;stroke-linejoin:round;stroke-miterlimit:10;}
	.st14{fill:none;stroke:#B97233;stroke-width:2.3841;stroke-linecap:round;stroke-linejoin:round;stroke-miterlimit:10;}
	.st15{fill:none;stroke:#B97233;stroke-width:13;stroke-miterlimit:10;}
	.st16{fill:none;stroke:#B97233;stroke-width:5.5;stroke-miterlimit:10;}
	.st17{clip-path:url(#SVGID_4_);}
	.st18{fill:none;stroke:#B97233;stroke-width:5.5;stroke-linecap:round;stroke-miterlimit:10;}
	.st19{fill:#F5EA61;}
	.st20{fill:none;stroke:#B97233;stroke-width:5.5;stroke-linejoin:round;stroke-miterlimit:10;}
</style>
<g
   id="g45"
   transform="translate(-67.75,-186.82)">
	<g
   id="g43">
		<line
   class="st10"
   x1="317.45999"
   y1="232.03"
   x2="333.75"
   y2="231.27"
   id="line11" />
		<path
   class="st10"
   d="m 271.24,208.64 c 0,0 6.17,-3.15 15.24,-3.15 10.47,0 16.22,10.08 11.36,27.45 l 7.91,-0.37"
   id="path13" />
		<path
   class="st10"
   d="m 122.48,191.07 -3.56,8.24 c 0,0 -6.64,-6.03 -20.43,-6.03 -16.58,0 -26.49,11.1 -26.49,24.56 0,13.47 12.78,23.08 26.75,23.08 20.19,0 20.93,-6.89 20.93,-6.89 v -10.7"
   id="path15" />
		<line
   class="st10"
   x1="99.900002"
   y1="221.7"
   x2="127.57"
   y2="220.11"
   id="line17" />
		<polyline
   class="st10"
   points="137.11,209.3 146.98,208.12 146.29,231.27   "
   id="polyline19" />
		<line
   class="st10"
   x1="135.59"
   y1="232.03999"
   x2="154.67999"
   y2="232.03999"
   id="line21" />
		<line
   class="st10"
   x1="141.77"
   y1="194.50999"
   x2="146.25"
   y2="194.71001"
   id="line23" />
		<polyline
   class="st10"
   points="165.12,210.3 174.63,208.12 175.43,231.27   "
   id="polyline25" />
		<line
   class="st10"
   x1="167.39"
   y1="232.03999"
   x2="182.8"
   y2="232.03"
   id="line27" />
		<path
   class="st10"
   d="m 175.43,225.06 c 0,0 8.03,-18.25 20.2,-18.25 12.17,0 3.8,25.21 3.8,25.21 H 207"
   id="path29" />
		<polyline
   class="st10"
   points="216.71,210.3 226.23,208.12 227.03,231.27   "
   id="polyline31" />
		<line
   class="st10"
   x1="219.75"
   y1="232.03999"
   x2="234.38"
   y2="232.03"
   id="line33" />
		<path
   class="st10"
   d="m 227.3,220.67 c 0,0 7.27,-13.86 19.44,-13.86 12.17,0 3.28,25.21 3.28,25.21 h 7.57"
   id="path35" />
		<path
   class="st10"
   d="m 299.21,222.4 c 0,0 -30.17,-8.66 -30.17,4.54 0,11.78 23.27,7.48 29.99,-0.9"
   id="path37" />
		<polyline
   class="st10"
   points="315.49,208.94 326.22,207.38 326.22,230.05   "
   id="polyline39" />
		<path
   class="st10"
   d="m 326.22,217.01 c 0,0 8.36,-9.69 19.67,-9.69 14.55,0 4.94,31.46 4.94,31.46 l 9.17,-0.26"
   id="path41" />
	</g>
</g>
</svg>
