<?xml version="1.0" encoding="UTF-8" standalone="no"?>
<!-- Generator: Adobe Illustrator 24.1.3, SVG Export Plug-In . SVG Version: 6.00 Build 0)  -->

<svg
   version="1.1"
   id="Layer_1"
   x="0px"
   y="0px"
   viewBox="0 0 290.69058 264.17261"
   xml:space="preserve"
   sodipodi:docname="Ginnan1.svg"
   width="290.69058"
   height="264.17261"
   inkscape:version="1.1.1 (c3084ef, 2021-09-22)"
   xmlns:inkscape="http://www.inkscape.org/namespaces/inkscape"
   xmlns:sodipodi="http://sodipodi.sourceforge.net/DTD/sodipodi-0.dtd"
   xmlns="http://www.w3.org/2000/svg"
   xmlns:svg="http://www.w3.org/2000/svg"><defs
   id="defs136" /><sodipodi:namedview
   id="namedview134"
   pagecolor="#ffffff"
   bordercolor="#666666"
   borderopacity="1.0"
   inkscape:pageshadow="2"
   inkscape:pageopacity="0.0"
   inkscape:pagecheckerboard="0"
   showgrid="false"
   inkscape:zoom="2.0208333"
   inkscape:cx="130.8866"
   inkscape:cy="139.29897"
   inkscape:window-width="1312"
   inkscape:window-height="1081"
   inkscape:window-x="0"
   inkscape:window-y="25"
   inkscape:window-maximized="0"
   inkscape:current-layer="Layer_1" />
<style
   type="text/css"
   id="style9">
	.st0{fill:#F3BD48;}
	.st1{fill:#B97233;}
	.st2{fill:none;stroke:#222222;stroke-width:5.5;stroke-linecap:round;stroke-linejoin:round;stroke-miterlimit:10;}
	.st3{fill:#89DC65;}
	.st4{fill:#222222;}
	.st5{fill:#FFFFFF;}
	.st6{fill:#F3EFA1;}
	.st7{fill:none;stroke:#FFFFFF;stroke-width:2.6604;stroke-linecap:round;stroke-linejoin:round;stroke-miterlimit:10;}
	.st8{fill:#FF8672;}
	.st9{fill:none;stroke:#222222;stroke-width:2.6604;stroke-linecap:round;stroke-linejoin:round;stroke-miterlimit:10;}
	.st10{fill:none;stroke:#222222;stroke-width:8.5;stroke-linecap:round;stroke-linejoin:round;stroke-miterlimit:10;}
	.st11{clip-path:url(#SVGID_2_);}
	.st12{fill:none;stroke:#222222;stroke-width:4.5;stroke-linecap:round;stroke-linejoin:round;stroke-miterlimit:10;}
	.st13{fill:none;stroke:#FFFFFF;stroke-width:2.3841;stroke-linecap:round;stroke-linejoin:round;stroke-miterlimit:10;}
	.st14{fill:none;stroke:#222222;stroke-width:2.3841;stroke-linecap:round;stroke-linejoin:round;stroke-miterlimit:10;}
	.st15{fill:none;stroke:#222222;stroke-width:13;stroke-miterlimit:10;}
	.st16{fill:none;stroke:#222222;stroke-width:5.5;stroke-miterlimit:10;}
	.st17{clip-path:url(#SVGID_4_);}
	.st18{fill:none;stroke:#222222;stroke-width:5.5;stroke-linecap:round;stroke-miterlimit:10;}
	.st19{fill:#F5EA61;}
	.st20{fill:none;stroke:#222222;stroke-width:5.5;stroke-linejoin:round;stroke-miterlimit:10;}
</style>
<g
   id="g131"
   transform="translate(-72.001518,-82.540722)">
	<path
   class="st0"
   d="m 86.08,230.6 c 0,0 -31.15,-83.78 -0.78,-118.26 6.51,-7.39 43.41,14.37 69.21,37.68"
   id="path11" />
	<path
   class="st0"
   d="M 258.47,143.66 C 158.36,116.23 64.19,193.71 79.88,277.52 c 8.76,46.77 62.47,82.67 158.44,64.29 95.97,-18.38 137.2,-89.42 99.15,-146.21 0,0 4.14,-80.57 -22.67,-103.19 -11,-9.28 -59.19,44.13 -59.19,44.13"
   id="path13" />
	<path
   class="st1"
   d="m 80.82,128.73 c -12.72,41.94 9.85,95.37 9.85,95.37 13.66,-25 27.99,-51.46 46.84,-62.6 -22.44,-20.26 -51.03,-39.2 -56.69,-32.77 z"
   id="path15" />
	<path
   class="st1"
   d="m 306.43,105.58 c -5.44,4.06 -13.06,12.95 -23.92,34.13 19.19,9.25 36.91,21.28 51.77,38.7 -0.01,-0.01 -13.05,-78.09 -27.85,-72.83 z"
   id="path17" />
	<g
   id="g33">
		<path
   class="st1"
   d="m 165.47,145.24 c 16.74,58.56 42,40.21 18.92,-7.05"
   id="path19" />
		<path
   class="st1"
   d="m 194.4,135.2 c 10.99,26.99 11.24,59.86 26.19,59.86 15.06,0 12.22,-54.1 3.88,-62.99"
   id="path21" />
		<path
   class="st1"
   d="m 239.88,132.4 c 6.53,60.45 28.86,46.56 17.27,2.24"
   id="path23" />
		<path
   class="st1"
   d="m 88.93,274.34 c 0,0 41.02,-19.11 45.84,-2.89 3.96,13.35 -20.21,15.59 -31.91,31.9 z"
   id="path25" />
		<path
   class="st1"
   d="m 114.2,315.02 c 0,0 29.31,-28.44 57.72,-28.51 28.41,-0.07 -20.66,38.1 -32.72,43.56"
   id="path27" />
		<path
   class="st1"
   d="m 322.63,303.5 c -25.24,-13.2 -41.1,-16.01 -39.57,-30.31 1.52,-14.3 43.43,-7.61 58.92,9.94"
   id="path29" />
		<path
   class="st1"
   d="m 351.59,268.44 c -41.56,-24.1 -31.46,-54.78 7.9,-26.02"
   id="path31" />
	</g>
	<g
   id="g99">
		<g
   id="g41">
			<path
   class="st2"
   d="M 269.74,137.7 C 169.63,110.27 72.66,187.74 88.35,271.55 c 8.76,46.77 62.47,82.67 158.44,64.29 95.97,-18.39 137.2,-89.42 99.15,-146.21 0,0 4.14,-80.57 -22.67,-103.19 -11,-9.28 -57.23,40.21 -57.23,40.21"
   id="path35" />
			<path
   class="st2"
   d="m 90.9,222.93 c 0,0 -31.15,-83.78 -0.78,-118.26 6.51,-7.39 42.43,10.94 68.24,34.25"
   id="path37" />
			<path
   class="st2"
   d="m 306.43,105.58 c 0,0 -16.56,13.75 -23.92,34.13 0,0 29.69,14.1 51.77,38.7"
   id="path39" />
		</g>
		<path
   class="st2"
   d="m 98.93,115.78 c 0,0 16.84,5.82 43.83,27.32"
   id="path43" />
		<g
   id="g77">
			<path
   class="st3"
   d="m 202.7,241.62 c -7.81,13.05 -49.8,34.07 -71.66,18.52 -21.18,-41.27 40.18,-95.42 71.66,-18.52 z"
   id="path45" />
			<path
   class="st2"
   d="m 202.7,241.62 c -7.81,13.05 -49.8,34.07 -71.66,18.52 -21.18,-41.27 41.09,-96.36 71.66,-18.52 z"
   id="path47" />
			<circle
   class="st4"
   cx="161.02"
   cy="230.89999"
   r="27.99"
   id="circle49" />
			<circle
   class="st5"
   cx="230.67"
   cy="284.06"
   r="43.439999"
   id="circle51" />
			
				<ellipse
   transform="matrix(0.9268,-0.3755,0.3755,0.9268,-59.3371,68.7031)"
   class="st5"
   cx="146.63"
   cy="186.61"
   rx="22.549999"
   ry="9.2799997"
   id="ellipse53" />
			
				<ellipse
   transform="matrix(0.8111,-0.5849,0.5849,0.8111,-85.2213,157.0917)"
   class="st6"
   cx="200.60001"
   cy="210.49001"
   rx="6.5700002"
   ry="13.23"
   id="ellipse55" />
			
				<ellipse
   transform="matrix(0.3139,-0.9494,0.9494,0.3139,-33.2486,363.8703)"
   class="st6"
   cx="235.16"
   cy="204.94"
   rx="9.04"
   ry="4.4899998"
   id="ellipse57" />
			
				<ellipse
   transform="matrix(0.9268,-0.3755,0.3755,0.9268,-68.8336,61.9095)"
   class="st5"
   cx="124.45"
   cy="207.58"
   rx="3.4300001"
   ry="2.49"
   id="ellipse59" />
			
				<ellipse
   transform="matrix(0.1854,-0.9827,0.9827,0.1854,79.6383,466.985)"
   class="st5"
   cx="321.47"
   cy="185.46001"
   rx="2.49"
   ry="3.4300001"
   id="ellipse61" />
			
				<ellipse
   transform="matrix(0.2104,-0.9776,0.9776,0.2104,62.9319,419.525)"
   class="st5"
   cx="291.17999"
   cy="170.8"
   rx="9.2799997"
   ry="22.549999"
   id="ellipse63" />
			<g
   id="g67">
				<path
   class="st5"
   d="m 163.4,215.68 c 0.48,2.97 3.45,5.03 6.43,4.54 2.98,-0.49 5.01,-3.35 4.52,-6.32 -0.48,-2.97 -3.32,-5.05 -6.29,-4.56 -2.98,0.48 -5.14,3.37 -4.66,6.34 z"
   id="path65" />
			</g>
			<g
   id="g71">
				<path
   class="st5"
   d="m 141.15,227.98 c 0.29,1.78 1.84,3.03 3.62,2.74 1.78,-0.29 3.01,-1.99 2.72,-3.77 -0.29,-1.78 -1.98,-2.89 -3.75,-2.6 -1.78,0.29 -2.88,1.85 -2.59,3.63 z"
   id="path69" />
			</g>
			<g
   id="g75">
				<path
   class="st5"
   d="m 165.78,231.18 c 0.28,1.69 1.85,2.86 3.54,2.58 1.69,-0.28 2.95,-1.9 2.68,-3.59 -0.28,-1.69 -2,-2.91 -3.69,-2.64 -1.7,0.28 -2.8,1.96 -2.53,3.65 z"
   id="path73" />
			</g>
		</g>
		<g
   id="g97">
			<path
   class="st3"
   d="m 240.91,234.75 c 11.47,9.99 57.9,16.97 73.88,-4.58 7.35,-45.8 -67.76,-78.28 -73.88,4.58 z"
   id="path79" />
			<path
   class="st2"
   d="m 240.91,234.75 c 11.47,9.99 57.9,16.97 73.88,-4.58 7.35,-45.8 -68.92,-78.9 -73.88,4.58 z"
   id="path81" />
			<circle
   class="st4"
   cx="277.82001"
   cy="211.46001"
   r="27.99"
   id="circle83" />
			<g
   id="g87">
				<path
   class="st5"
   d="m 270.21,197.92 c 0.46,2.98 -1.72,5.69 -4.69,6.15 -2.98,0.46 -5.64,-1.5 -6.1,-4.48 -0.46,-2.98 1.47,-5.74 4.45,-6.2 2.98,-0.46 5.88,1.56 6.34,4.53 z"
   id="path85" />
			</g>
			<g
   id="g91">
				<path
   class="st5"
   d="m 295.38,202.69 c 0.28,1.78 -0.98,3.47 -2.76,3.74 -1.78,0.27 -3.41,-0.97 -3.69,-2.75 -0.28,-1.78 0.91,-3.47 2.68,-3.74 1.78,-0.27 3.49,0.97 3.77,2.75 z"
   id="path89" />
			</g>
			<g
   id="g95">
				<path
   class="st5"
   d="m 272.77,213.4 c 0.26,1.69 -0.85,3.33 -2.54,3.59 -1.69,0.26 -3.36,-0.94 -3.63,-2.63 -0.26,-1.69 0.97,-3.31 2.66,-3.58 1.7,-0.27 3.24,0.92 3.51,2.62 z"
   id="path93" />
			</g>
		</g>
	</g>
	<path
   class="st7"
   d="m 124.45,275.5 c 19.33,-1.63 37.63,-1.95 54.1,0"
   id="path101" />
	<path
   class="st7"
   d="m 144.87,288.37 c 0,0 14.21,-5.5 27.05,-5.17"
   id="path103" />
	<path
   class="st7"
   d="m 144.24,309.89 c 7.06,-6.25 21.42,-12.69 27.25,-14.19"
   id="path105" />
	<path
   class="st7"
   d="m 321.49,245.43 c -17.23,3.3 -33.37,8.84 -47.93,15.53"
   id="path107" />
	<path
   class="st7"
   d="m 310.65,261.07 c 0,0 -15.22,-0.86 -27.33,3.41"
   id="path109" />
	<path
   class="st7"
   d="m 315.3,279.91 c -8.64,-3.77 -20.67,-4.87 -26.68,-4.5"
   id="path111" />
	<path
   class="st2"
   d="m 172.46,324.2 c 0,0 73.43,37.17 124.89,-18.42"
   id="path113" />
	<g
   id="g129">
		<path
   class="st8"
   d="m 235.6,292.26 c 0,0 6.34,-3.84 12.84,5.04 -2.28,5.15 -5.63,9.21 -11.41,9.63 -7.54,0.56 -10.54,-3.49 -13.25,-8.76 l 0.86,-0.21 c -0.01,-0.01 7.19,-10.07 10.96,-5.7 z"
   id="path115" />
		<path
   class="st2"
   d="m 197.42,274.73 c 7.54,10.92 27.56,10.29 31.04,-8.6 5.1,16.14 26.52,16.63 34.59,0.82"
   id="path117" />
		<path
   class="st2"
   d="m 209.77,281.8 c 14.3,8.48 10.52,26.9 26.08,25.76 15.56,-1.14 13.48,-28.61 20.53,-32.73"
   id="path119" />
		<path
   class="st8"
   d="m 232.55,257.5 c -2.75,-1.86 -5.76,-2.13 -7.88,-1.68 -13.88,1.58 -11.46,12.17 0.66,11.05 12.49,-1.16 8.89,-8.32 7.22,-9.37 z"
   id="path121" />
		<path
   class="st2"
   d="m 227.75,253.52 c -15.08,1.72 -12.45,13.22 0.72,12 11.58,-1.07 10.9,-7.09 8.92,-9.37"
   id="path123" />
		<path
   class="st9"
   d="m 223.46,298.58 c 0,0 12.2,-13.54 23.75,0.2"
   id="path125" />
		<path
   class="st4"
   d="m 227.89,270.3 c -1.6,1.63 -2.62,3.91 -4.46,5.48 -1.22,1.05 -2.6,2 -3.94,2.92 -2.21,1.51 -4.82,2.96 -7.38,3.59 2.43,2.65 3.71,6.25 5.76,9.27 1.77,2.61 3.83,5.11 5.76,7.61 1.89,-1.6 6.26,-5.86 8.83,-6.54 2.37,-0.63 11.71,2.64 14.81,5.19 1.85,-4.04 3.19,-8.58 4.61,-12.81 0.85,-2.54 2.16,-5.63 1.89,-8.35 -4.73,1.96 -11.29,2.91 -16.16,1.04 -3.94,-1.52 -5.58,-5.49 -9.72,-7.4 z"
   id="path127" />
	</g>
</g>
</svg>
