<svg width="392" height="60" viewBox="0 0 392 60" fill="none" xmlns="http://www.w3.org/2000/svg">
<path d="M56.2052 12.2068V0.360596H11.2742C8.15521 0.360596 5.16401 1.59959 2.95858 3.80502C0.753157 6.01044 -0.48584 9.00166 -0.48584 12.1206V24.1394C-0.48584 27.2583 0.753157 30.2495 2.95858 32.4549C5.16401 34.6603 8.15521 35.8994 11.2742 35.8994H46.8913V47.7378H0.36088V59.584H46.9776C50.0965 59.584 53.0877 58.345 55.2931 56.1396C57.4986 53.9341 58.7376 50.9429 58.7376 47.824V35.8131C58.7376 32.6941 57.4986 29.703 55.2931 27.4976C53.0877 25.2921 50.0965 24.0531 46.9776 24.0531H11.3604V12.2068H56.2052Z" fill="#B97233"/>
<path d="M68.4431 12.1206V47.824C68.4431 50.943 69.6821 53.9341 71.8876 56.1395C74.093 58.3449 77.0842 59.584 80.2031 59.584H115.907C119.025 59.584 122.017 58.3449 124.222 56.1395C126.428 53.9341 127.667 50.943 127.667 47.824V12.1206C127.667 9.00165 126.428 6.01045 124.222 3.80502C122.017 1.59959 119.025 0.360596 115.907 0.360596H80.2031C77.0842 0.360596 74.093 1.59959 71.8876 3.80502C69.6821 6.01045 68.4431 9.00165 68.4431 12.1206ZM115.82 47.7377H80.2658V12.2068H115.797L115.82 47.7377Z" fill="#B97233"/>
<path d="M194.432 12.1206V59.584H206.279V40.1251H240.979V59.584H252.816V12.1206C252.816 9.00165 251.577 6.01045 249.372 3.80502C247.167 1.59959 244.176 0.360596 241.056 0.360596H206.192C203.074 0.360596 200.082 1.59959 197.876 3.80502C195.671 6.01045 194.432 9.00165 194.432 12.1206ZM240.979 28.2788H206.287V12.2068H240.986L240.979 28.2788Z" fill="#B97233"/>
<path d="M333.138 12.1208V59.5843H344.961V40.1254H379.653V59.5843H391.499V12.1208C391.499 9.0019 390.26 6.0107 388.055 3.80526C385.85 1.59983 382.857 0.36084 379.739 0.36084H344.898C341.78 0.36084 338.787 1.59983 336.582 3.80526C334.377 6.0107 333.138 9.0019 333.138 12.1208ZM379.669 28.279H344.961V12.2071H379.653L379.669 28.279Z" fill="#B97233"/>
<path d="M310.762 0.360596V47.7377H306.058L289.029 5.29196C288.447 3.83716 287.445 2.58984 286.148 1.71086C284.851 0.831895 283.32 0.361588 281.754 0.360596H271.208C269.13 0.360596 267.136 1.18659 265.665 2.65688C264.194 4.12716 263.368 6.12129 263.368 8.2006V59.584H275.184V12.2068H279.927L296.908 54.6604C297.492 56.115 298.497 57.3616 299.794 58.2391C301.093 59.1168 302.625 59.5852 304.192 59.584H314.737C316.817 59.584 318.809 58.758 320.28 57.2877C321.751 55.8174 322.577 53.8233 322.577 51.744V0.360596H310.762Z" fill="#B97233"/>
<path d="M150.042 47.7377V0.360596H138.211V47.824C138.211 50.943 139.45 53.9341 141.656 56.1395C143.861 58.3449 146.852 59.584 149.971 59.584H185.588V47.7377H150.042Z" fill="#B97233"/>
</svg>
